<svg width="40" height="40" viewBox="0 0 40 40" fill="none" xmlns="http://www.w3.org/2000/svg">
<path id="customer-service 1 (Traced)" fill-rule="evenodd" clip-rule="evenodd" d="M28.3212 0.127563C27.9198 0.268912 27.468 0.691786 27.2497 1.13053C27.1041 1.42316 27.0954 1.61524 27.0954 4.52877C27.0954 7.54564 27.0994 7.62406 27.265 7.92958C27.3584 8.10158 27.5525 8.35488 27.6965 8.4924C28.143 8.91895 28.4654 9.00964 29.6688 9.04732L30.7517 9.08117L30.7092 9.28717C30.5689 9.96687 30.1109 12.7617 30.1309 12.8163C30.1441 12.8523 31.5316 12.0232 33.2143 10.9735L36.2738 9.06522L37.1917 9.06421C37.6965 9.06366 38.2893 9.0248 38.509 8.97782C39.052 8.8618 39.5197 8.49342 39.7843 7.97368L40 7.54971L39.9983 4.49523C39.9967 1.70155 39.9842 1.4137 39.8527 1.1249C39.6713 0.727201 39.0844 0.206524 38.6815 0.0862839C38.4589 0.0198312 37.0291 -0.00393544 33.519 0.000520804C29.3508 0.00583702 28.6158 0.0237402 28.3212 0.127563ZM38.5523 1.51533L38.7448 1.70718V4.45215C38.7448 7.25278 38.7296 7.41071 38.4379 7.63391C38.3532 7.69872 37.939 7.72999 37.1424 7.73163L35.9714 7.73413L33.9429 8.99533C32.8273 9.68902 31.9019 10.2431 31.8864 10.2267C31.8711 10.2102 31.9558 9.64266 32.0749 8.96546L32.2912 7.73413H30.5331H28.7749L28.5824 7.5422L28.3898 7.35035V4.51782C28.3898 1.71719 28.3917 1.68326 28.5604 1.50431L28.731 1.3234H33.5454H38.3597L38.5523 1.51533ZM18.2309 1.99872C17.423 2.08432 15.9068 2.3721 15.1555 2.58233C12.0856 3.44137 9.40472 4.99917 7.16622 7.22464C4.94146 9.43634 3.40217 12.0212 2.54976 14.9765L2.28728 15.8866L1.71634 14.935C1.40231 14.4116 1.11488 13.9647 1.0777 13.9418C1.02671 13.9103 0.224664 14.3318 0.000226208 14.5079C-0.0229942 14.5262 1.74827 17.5265 2.18012 18.2004C2.23393 18.2843 2.66084 18.0624 4.12106 17.1914C5.15068 16.5773 6.00395 16.0666 6.01721 16.0566C6.03454 16.0434 5.46729 15.0672 5.37551 14.9523C5.36955 14.945 4.99426 15.1637 4.54146 15.4384C4.08866 15.7132 3.69439 15.9392 3.66536 15.9405C3.58119 15.9445 3.90023 14.8854 4.26681 13.9443C6.24023 8.87767 10.5015 5.11175 15.8073 3.74533C18.4251 3.07118 21.45 3.07056 24.0952 3.74376L24.9388 3.95845L25.1273 3.36405C25.2653 2.92898 25.2911 2.75573 25.2237 2.71742C25.0573 2.6229 23.8652 2.34153 22.9221 2.17415C22.2088 2.04766 21.6003 2.00481 20.2705 1.98769C19.3213 1.97542 18.4035 1.98042 18.2309 1.99872ZM29.6614 3.21926L29.6842 3.86424L33.5477 3.88449L37.4112 3.90481V3.23951V2.57427H33.525H29.6386L29.6614 3.21926ZM29.6614 5.79919L29.6842 6.44417L32.2533 6.46481L34.8225 6.48537V5.81983V5.1542H32.2306H29.6386L29.6614 5.79919ZM36.1561 5.81873V6.48326H36.7837H37.4112V5.81873V5.1542H36.7837H36.1561V5.81873ZM18.7016 6.53447C17.0969 6.78988 15.4281 7.59685 14.2133 8.70481C13.1292 9.69355 12.1963 11.2591 11.7792 12.7895L11.5695 13.5585L11.5663 16.7639L11.5629 19.9693L11.7669 20.4028C12.0635 21.033 12.408 21.3812 13.0332 21.6826L13.5837 21.948L13.8013 22.6221C13.9209 22.9929 14.1723 23.5665 14.3598 23.8966C14.7408 24.5674 15.7286 25.6188 16.3284 25.9919C16.5875 26.1531 16.7009 26.2755 16.701 26.394C16.7012 26.5899 16.8933 26.5421 13.9419 27.0802C12.8773 27.2743 11.8132 27.5052 11.5771 27.5932C10.3217 28.0613 9.36698 29.0556 8.88853 30.3933C8.77063 30.7229 8.65178 31.0189 8.6244 31.051C8.59694 31.083 8.0555 30.5879 7.4211 29.9506C5.86298 28.3853 5.84886 28.6082 7.61918 26.8334L8.97067 25.4785L6.57975 23.0928L4.18884 20.7073L2.4561 22.4491C0.99478 23.9181 0.684757 24.2705 0.476636 24.6991C0.0908327 25.4936 -0.0302113 26.09 0.00948298 27.0007C0.0475299 27.8724 0.212975 28.4363 0.633531 29.1279C0.797878 29.3982 2.58208 31.2267 5.79238 34.4148C10.3752 38.9661 10.7358 39.3056 11.2417 39.545C12.6513 40.2119 14.3682 40.1407 15.6042 39.3641C15.8172 39.2302 16.8028 38.3825 17.7945 37.4803L19.5975 35.8397L19.1126 35.3511L18.6277 34.8625H25.5484C29.3547 34.8625 32.4691 34.8354 32.4691 34.8024C32.4691 34.5928 30.8683 30.0161 30.6536 29.6122C30.3209 28.9857 29.5119 28.1742 28.8997 27.8528C28.251 27.5122 27.8572 27.4109 25.6049 27.0061C22.9988 26.5375 23.2114 26.5921 23.2172 26.3934C23.2207 26.2747 23.4008 26.0942 23.8159 25.7936C24.1424 25.5572 24.5649 25.1826 24.7548 24.9613L25.1001 24.5591L26.0193 24.5282C26.7618 24.5033 26.9991 24.4656 27.2533 24.3325C27.6515 24.124 27.9665 23.8111 28.182 23.4102C28.349 23.0993 28.3506 23.0539 28.3506 18.4838C28.3506 14.3405 28.3362 13.805 28.2098 13.2206C27.512 9.99665 25.2093 7.56714 22.0385 6.70935C21.5883 6.58755 21.1478 6.54314 20.1921 6.52321C19.5017 6.50882 18.831 6.51391 18.7016 6.53447ZM21.1174 7.85078C23.6836 8.29679 25.8392 10.1113 26.6701 12.5248C26.9869 13.4449 27.055 13.9953 27.0556 15.6436L27.0562 17.1031L26.7424 16.9803C26.4364 16.8605 26.4286 16.848 26.4286 16.4784V16.0994H25.6801C23.7752 16.0994 21.9796 15.3226 20.551 13.8808L19.9687 13.2929L19.2839 13.9424C17.7264 15.4196 16.1346 16.0994 14.2334 16.0994H13.4848V16.4784C13.4848 16.8494 13.4781 16.8601 13.1638 16.9831L12.8427 17.1088L12.8784 15.2946C12.9184 13.2715 12.9656 13.0088 13.4898 11.8899C14.4333 9.87579 16.275 8.38052 18.3544 7.94029C19.4762 7.70286 20.1419 7.68128 21.1174 7.85078ZM35.8122 12.2086C35.7495 12.3061 35.2375 13.1513 34.6745 14.0869L33.651 15.7879L33.9818 15.9913C34.1637 16.1033 34.3908 16.2437 34.4863 16.3034C34.5819 16.3632 34.6887 16.4121 34.7236 16.4121C34.7586 16.4121 35.0304 16.0047 35.3277 15.5068C35.6849 14.9084 35.8879 14.6367 35.9262 14.7054C35.9582 14.7626 36.0752 15.1436 36.1864 15.5521C37.5188 20.448 36.5672 25.7086 33.6059 29.8179C33.3588 30.1608 33.1411 30.4818 33.1221 30.5311C33.0918 30.6097 33.9237 31.3423 34.045 31.3439C34.139 31.345 35.0104 30.104 35.5445 29.2081C37.2227 26.3935 38.0583 23.3393 38.0613 20.0083C38.063 18.2097 37.8071 16.3927 37.3353 14.8526C37.2503 14.5752 37.1903 14.339 37.2019 14.3275C37.2198 14.3095 37.9053 14.7056 38.7983 15.2498L39.048 15.4019L39.3776 14.849C39.5588 14.5449 39.6937 14.2832 39.6771 14.2675C39.6391 14.2313 36.2819 12.2211 36.0773 12.112C35.9549 12.0468 35.9044 12.0652 35.8122 12.2086ZM20.5024 15.5741C21.5232 16.4132 23.0004 17.0791 24.2713 17.2732C24.6165 17.3258 24.9431 17.3813 24.997 17.3962C25.0721 17.4172 25.0948 17.8847 25.0938 19.4C25.0926 21.5248 25.0418 21.9277 24.6701 22.763L24.4705 23.2113L22.2136 23.2321L19.9567 23.2528V23.8782V24.5037L21.6433 24.5428L23.33 24.5819L22.9594 24.8383C22.4034 25.223 21.6797 25.5403 21.0297 25.6845C20.2524 25.8568 19.0547 25.8033 18.3486 25.5646C16.7588 25.0272 15.5376 23.785 14.9999 22.1583C14.8031 21.5629 14.7915 21.4357 14.7579 19.5101C14.7193 17.2979 14.7084 17.3538 15.181 17.3514C15.559 17.3496 16.8399 17.0039 17.4891 16.7286C18.0925 16.4727 19.4508 15.6164 19.7139 15.3261C19.7962 15.2354 19.8941 15.1612 19.9318 15.1612C19.9694 15.1612 20.2262 15.347 20.5024 15.5741ZM13.4848 19.3965V20.5047L13.2813 20.3151C13.1693 20.2109 13.0281 20.0306 12.9675 19.9145C12.8351 19.661 12.8229 19.0481 12.9455 18.8109C13.0575 18.5943 13.3352 18.2884 13.42 18.2884C13.4557 18.2884 13.4848 18.787 13.4848 19.3965ZM26.9124 18.7615C27.1869 19.2715 27.0726 19.9051 26.6322 20.3151L26.4286 20.5047V19.387V18.2693L26.5986 18.3818C26.6921 18.4437 26.8333 18.6146 26.9124 18.7615ZM27.0562 22.24C27.0562 22.7621 27.0341 22.852 26.8636 23.0218C26.7119 23.1731 26.5901 23.2137 26.2889 23.2137H25.9068L26.0872 22.686C26.1865 22.3958 26.2686 22.1044 26.2697 22.0386C26.2713 21.9412 26.7299 21.7023 26.9974 21.6595C27.0298 21.6543 27.0562 21.9155 27.0562 22.24ZM6.81525 25.8322L6.462 26.1843L4.97441 24.7002L3.48689 23.2162L3.83606 22.8617L4.18531 22.507L5.6769 23.9936L7.16858 25.4801L6.81525 25.8322ZM5.29361 27.3941C4.89055 27.9861 4.83854 28.749 5.15931 29.365C5.39449 29.8167 10.391 34.7465 10.775 34.9057C11.3788 35.1561 12.3181 35.0226 12.7414 34.6263C12.9017 34.4762 12.9068 34.4803 14.3898 35.9639L15.8775 37.452L15.4671 37.8318C15.2414 38.0406 14.8531 38.3111 14.6042 38.4328C14.1866 38.6371 14.0818 38.6541 13.2495 38.6535C11.7734 38.6523 12.1898 38.9801 6.60446 33.4237C1.37423 28.2207 1.51253 28.3812 1.30653 27.2769C1.1341 26.3528 1.45605 25.3276 2.16576 24.541L2.52819 24.1392L4.0121 25.6181L5.49608 27.0969L5.29361 27.3941ZM19.996 27.07C20.6305 27.067 21.1287 27.0225 21.4079 26.9441C21.6452 26.8774 21.8469 26.8305 21.8563 26.8398C21.8657 26.8491 21.4416 27.286 20.9139 27.8106L19.9545 28.7646L18.9842 27.7954L18.0141 26.8262L18.5147 26.9504C18.8459 27.0326 19.3472 27.0731 19.996 27.07ZM18.5243 29.2132L19.9175 30.6001L21.3225 29.2014L22.7276 27.8029L25.186 28.2463C27.1769 28.6054 27.7361 28.7341 28.1259 28.923C28.6591 29.1816 29.1418 29.6088 29.4496 30.0948C29.6195 30.3629 30.6648 33.2642 30.6648 33.4675C30.6648 33.5037 27.6549 33.5334 23.9762 33.5334H17.2876L16.0736 32.3216C15.4059 31.6552 14.8289 31.1099 14.7913 31.1099C14.7538 31.1099 14.2238 31.5614 13.6136 32.1135C11.8392 33.7185 11.7763 33.768 11.5075 33.768C11.3064 33.768 11.1299 33.635 10.461 32.979L9.65645 32.19L9.96028 31.2889C10.3046 30.2674 10.6123 29.7386 11.0882 29.3499C11.694 28.8552 12.1413 28.7151 14.5465 28.2666C15.7963 28.0336 16.8891 27.8392 16.975 27.8347C17.0785 27.8291 17.6003 28.2934 18.5243 29.2132ZM17.3098 36.1716L16.9003 36.5849L15.4083 35.0937L13.9163 33.6025L14.3406 33.2098L14.7649 32.8171L16.2421 34.2877L17.7193 35.7584L17.3098 36.1716Z" fill="white"/>
</svg>
