<svg width="43" height="35" viewBox="0 0 43 35" fill="none" xmlns="http://www.w3.org/2000/svg">
<path id="credit-card 1 (Traced)" fill-rule="evenodd" clip-rule="evenodd" d="M33.759 0.0775617C34.5881 0.239525 35.3492 0.859634 35.6228 1.59627C35.7107 1.83266 36.2307 4.57689 36.7786 7.69472L37.7748 13.3634H39.4695H41.1644L41.6792 13.6174C42.2248 13.8866 42.5131 14.1676 42.8147 14.7242L43 15.0661V24.1609V33.2558L42.774 33.6786C42.5099 34.1729 42.0691 34.5798 41.532 34.8251L41.1492 35H24.8702H8.59132L8.1133 34.7683C7.57177 34.5057 7.17661 34.1033 6.91767 33.5507C6.74857 33.19 6.7394 33.0244 6.71584 29.9247L6.69119 26.6767L6.25313 26.7563C5.50851 26.8916 4.59252 26.7986 4.15076 26.543C3.65305 26.2551 3.20304 25.7297 3.04303 25.2498C2.97278 25.0392 2.24877 21.092 1.43399 16.4781C0.244152 9.74027 -0.0373421 8.00237 0.00379562 7.64771C0.116528 6.67601 0.856018 5.81121 1.78447 5.56553C2.08767 5.4853 5.90821 4.80713 22.4726 1.89354C31.5146 0.302981 33.3146 -0.00989822 33.3644 0.000234848C33.3891 0.00521832 33.5666 0.0400196 33.759 0.0775617ZM17.6281 4.14341C7.22322 5.97575 1.99672 6.92934 1.85463 7.02129C1.57204 7.20401 1.3984 7.55319 1.39781 7.93974C1.39756 8.11333 1.49876 8.84308 1.62277 9.56145C1.83477 10.7898 1.85867 10.8652 2.02289 10.8277C2.11896 10.8057 5.07474 10.2824 8.59132 9.66485C12.1079 9.04732 16.1398 8.33867 17.551 8.09016C31.4949 5.6348 34.8424 5.04094 34.865 5.01859C34.9331 4.9514 34.3645 2.10285 34.2479 1.92726C34.0791 1.67285 33.635 1.40383 33.3833 1.40341C33.2766 1.40325 26.1867 2.63624 17.6281 4.14341ZM18.6447 9.29317C9.78385 10.8516 2.43604 12.1526 2.31624 12.1844L2.09843 12.2421L3.17393 18.3469C3.76536 21.7045 4.29083 24.5919 4.34164 24.7634C4.50653 25.3207 5.02182 25.5081 6.04643 25.3836L6.69843 25.3043V20.3871C6.69843 14.9344 6.6959 14.9628 7.24282 14.2555C7.43969 14.0011 7.70679 13.7923 8.05601 13.62L8.5761 13.3634H22.444C36.1925 13.3634 36.3118 13.362 36.3118 13.1995C36.3118 13.0584 35.3057 7.26431 35.1672 6.60799C35.1271 6.41787 35.0826 6.38099 34.9364 6.41613C34.8368 6.44013 27.5056 7.73475 18.6447 9.29317ZM8.77102 14.8069C8.61833 14.8698 8.41129 15.0244 8.31101 15.1503L8.12862 15.3792V24.1386C8.12862 32.2458 8.1393 32.9157 8.27214 33.1378C8.58762 33.665 7.38652 33.6295 24.9082 33.6295C39.0049 33.6295 40.8918 33.6148 41.1099 33.5035C41.6395 33.2332 41.6119 33.7477 41.6119 24.142C41.6119 14.4661 41.6542 15.1996 41.0762 14.8517C40.8192 14.6969 40.4166 14.6929 24.9307 14.6927C11.6235 14.6924 9.00364 14.7109 8.77102 14.8069ZM38.0776 22.0277C38.5187 22.1663 39.0409 22.7257 39.158 23.1849C39.2801 23.6634 39.2863 25.6704 39.1671 26.0943C39.0523 26.5026 38.6295 26.972 38.2054 27.1622C37.9003 27.2991 37.5909 27.3137 34.9579 27.3153C32.072 27.3171 32.0446 27.3156 31.6769 27.1239C31.4729 27.0176 31.1925 26.7716 31.0537 26.5772L30.8013 26.2238L30.7739 24.7978C30.7573 23.9364 30.7824 23.2527 30.8372 23.0708C30.9524 22.6885 31.5641 22.1254 31.9913 22.0082C32.4355 21.8864 37.6818 21.9032 38.0776 22.0277ZM32.2063 23.43C32.1381 23.4973 32.1053 23.8799 32.1053 24.607C32.1053 25.493 32.1301 25.7114 32.2446 25.8363C32.3736 25.9772 32.5705 25.9882 34.9422 25.9882C36.5449 25.9882 37.5614 25.9561 37.6634 25.9023C37.8126 25.8233 37.8261 25.7178 37.8261 24.6286C37.8261 23.9756 37.8008 23.4162 37.77 23.3858C37.7392 23.3553 36.4974 23.3304 35.0105 23.3304C33.0201 23.3304 32.2806 23.3566 32.2063 23.43ZM38.7369 29.7519C38.9876 30.0155 38.9773 30.4241 38.7132 30.6847L38.5068 30.8886H36.2922C33.8961 30.8886 33.7884 30.87 33.6176 30.4266C33.5231 30.181 33.6635 29.753 33.8753 29.641C33.9647 29.5938 34.9767 29.5597 36.2916 29.5597C38.5476 29.5597 38.5544 29.5602 38.7369 29.7519ZM31.1738 29.7786C31.4098 30.0748 31.3971 30.4326 31.1416 30.6847L30.9352 30.8886H28.6955H26.4557L26.2 30.6361C25.986 30.4248 25.9527 30.3401 25.9964 30.117C26.1037 29.5684 26.1462 29.5597 28.7013 29.5597H30.9994L31.1738 29.7786ZM23.6022 29.7786C23.7993 30.0259 23.8214 30.235 23.6787 30.4996C23.4757 30.8758 23.4256 30.8832 21.0594 30.886L18.805 30.8886L18.5986 30.6689C18.3464 30.4001 18.3345 30.0699 18.5667 29.7786L18.741 29.5597H21.0844H23.4279L23.6022 29.7786ZM15.943 29.7051C16.0405 29.785 16.1438 29.9703 16.1725 30.117C16.2162 30.3401 16.1829 30.4248 15.9689 30.6361L15.7132 30.8886H13.4734H11.2337L11.0273 30.6847C10.754 30.415 10.7486 29.9877 11.0154 29.7403C11.2055 29.564 11.2651 29.5597 13.488 29.5597C15.5336 29.5597 15.7837 29.5745 15.943 29.7051Z" fill="white"/>
</svg>
