<svg width="40" height="40" viewBox="0 0 40 40" fill="none" xmlns="http://www.w3.org/2000/svg">
<path id="exchange 1 (Traced)" fill-rule="evenodd" clip-rule="evenodd" d="M23.0829 0.205778C22.753 0.379748 21.631 0.993252 17.3796 3.32457C9.95671 7.3948 7.52214 8.76132 7.42033 8.91457C7.31594 9.07182 7.29484 9.79896 7.26093 14.4074L7.22186 19.7189L6.79212 19.8647C6.10053 20.0995 5.11164 20.6193 4.41881 21.1123C1.29359 23.3358 -0.385866 27.1099 0.0754498 30.8727C0.230394 32.1365 0.801882 33.9023 1.20921 34.376C1.35446 34.5448 1.45432 34.5829 1.75233 34.5829C2.0555 34.5829 2.1495 34.5457 2.30608 34.3636C2.55917 34.0693 2.54846 33.7239 2.26545 33.0588C1.09528 30.3083 1.3972 27.2005 3.08158 24.6574C3.49 24.0409 4.49999 22.9911 5.14446 22.5134C9.08963 19.5889 14.7474 20.4925 17.5918 24.5011C19.7853 27.5925 19.7444 31.8228 17.4916 34.8632C16.9994 35.5275 15.9558 36.5263 15.309 36.9522C12.7952 38.6071 9.67276 38.9024 6.94854 37.7429C6.28353 37.4598 5.93824 37.4491 5.64398 37.7022C5.46193 37.8589 5.42473 37.9529 5.42473 38.2561C5.42473 38.7137 5.59468 38.8758 6.44628 39.2304C8.22685 39.9718 10.5157 40.1987 12.3789 39.8184C15.4405 39.1935 18.0977 37.2361 19.5486 34.5372C19.7308 34.1982 19.9151 33.9208 19.9581 33.9207C20.001 33.9206 20.7746 34.3275 21.6771 34.8247C22.5795 35.322 23.4273 35.7474 23.5611 35.7701C23.7701 35.8055 24.5474 35.4032 29.1087 32.8991C32.0262 31.2975 35.5912 29.3418 37.0308 28.5531C38.4705 27.7644 39.7275 27.0292 39.8242 26.9194C39.9998 26.72 40 26.7168 40 23.797C40 20.6542 39.9884 20.5551 39.598 20.3531C39.3255 20.2121 39.1118 20.2121 38.8393 20.3531C38.4538 20.5526 38.4373 20.6788 38.4373 23.4335V25.9928L31.9324 29.5655C28.3547 31.5305 25.2079 33.2607 24.9392 33.4104L24.4509 33.6827L24.4537 26.0048L24.4564 18.327L26.7108 17.0961C27.9508 16.4191 28.9868 15.8652 29.0131 15.8652C29.0394 15.8652 29.0609 16.7989 29.0609 17.9401C29.0609 20.1931 29.0878 20.3566 29.4885 20.5391C29.6012 20.5905 29.7708 20.6316 29.8655 20.6303C30.0627 20.6279 33.4673 18.7714 33.7189 18.5291C33.8104 18.4411 33.9073 18.2584 33.9344 18.1233C33.9614 17.9882 33.9848 16.8006 33.9862 15.4842L33.989 13.0907L36.1366 11.9184C37.3179 11.2736 38.3187 10.7344 38.3608 10.7201C38.4095 10.7035 38.4373 11.4658 38.4373 12.8145C38.4373 15.1168 38.4631 15.276 38.8648 15.4591C39.1342 15.582 39.3353 15.577 39.598 15.4412C39.9885 15.2391 40 15.1407 40 11.9869V9.05377L39.7851 8.84252C39.4924 8.55483 23.8899 0 23.6578 0C23.5562 0 23.2974 0.0926118 23.0829 0.205778ZM30.6269 5.51029C34.4218 7.59534 37.5384 9.313 37.5528 9.32738C37.5817 9.3563 33.3855 11.67 33.2361 11.7075C33.1846 11.7204 30.8792 10.4868 28.113 8.96616C25.3468 7.4456 22.2293 5.73263 21.1853 5.15961C20.1412 4.58659 19.3149 4.09079 19.3491 4.05781C19.4625 3.94816 23.5508 1.7207 23.6398 1.72C23.6879 1.71969 26.8321 3.42531 30.6269 5.51029ZM24.5677 8.8011C28.3712 10.8907 31.4826 12.6228 31.4819 12.6502C31.4812 12.6775 31.1102 12.9045 30.6575 13.1544L29.8343 13.6089L22.8851 9.7938C19.063 7.69554 15.9358 5.96116 15.9358 5.93966C15.9356 5.89644 17.5012 5.01628 17.5941 5.00737C17.6261 5.00432 20.7643 6.71151 24.5677 8.8011ZM21.0217 10.5488C24.6482 12.5391 27.7454 14.2435 27.9042 14.3362L28.1929 14.5047L25.996 15.7124C24.7877 16.3767 23.7507 16.9319 23.6914 16.9462C23.612 16.9654 12.5199 10.9385 10.0045 9.5094L9.69386 9.33293L11.8958 8.11084C13.173 7.40207 14.1672 6.89743 14.2629 6.90931C14.3536 6.92065 17.395 8.55835 21.0217 10.5488ZM15.9208 14.545C19.6883 16.613 22.7975 18.3294 22.83 18.3593C22.8624 18.3893 22.88 21.8473 22.869 26.0438L22.8491 33.6738L21.6538 33.0342L20.4585 32.3946L20.5029 32.1211C20.7694 30.4799 20.7913 30.228 20.755 29.2294C20.714 28.1042 20.5728 27.2802 20.2604 26.3429C19.2332 23.2612 16.7471 20.7744 13.6629 19.7435C12.5034 19.356 11.861 19.2648 10.2887 19.2648H8.82366V14.9776C8.82366 11.1027 8.83553 10.6948 8.94711 10.7377C9.01493 10.7638 12.1531 12.477 15.9208 14.545ZM32.4027 15.8033L32.3817 17.5389L31.9129 17.8011C31.6551 17.9453 31.2594 18.1669 31.0339 18.2935L30.6237 18.5237V16.7384V14.9532L31.4246 14.5116C31.865 14.2688 32.2701 14.0695 32.3246 14.0689C32.4024 14.0679 32.4192 14.4414 32.4027 15.8033ZM38.8365 17.2247C38.3755 17.4803 38.3144 18.0243 38.7029 18.413C39.0928 18.8029 39.598 18.7491 39.8699 18.2887C40.2765 17.6002 39.5356 16.8371 38.8365 17.2247ZM6.35205 26.1944C5.73806 26.8033 5.20486 27.3923 5.16712 27.5035C5.03327 27.8983 5.19306 28.1424 6.32213 29.2685C7.41244 30.3557 7.42158 30.3626 7.77663 30.3626C8.23865 30.3626 8.51111 30.0844 8.51111 29.6124C8.51111 29.3491 8.45438 29.2402 8.14512 28.9094L7.77905 28.518L10.3978 28.5416L13.0166 28.5651L13.3982 28.8012C14.4159 29.4308 14.7065 30.5812 14.1068 31.6049C13.9925 31.7999 13.7784 32.0515 13.6308 32.1641C13.1526 32.529 12.7745 32.59 10.993 32.59H9.35858L9.13019 32.8184C8.75099 33.1977 8.83014 33.7967 9.29091 34.035C9.62065 34.2056 12.5789 34.2043 13.2351 34.0334C14.6616 33.6618 15.6918 32.5416 15.9353 31.0975C16.2369 29.3091 14.9838 27.4593 13.1905 27.0459C12.998 27.0015 11.7379 26.9659 10.3171 26.9648L7.78648 26.9629L8.14879 26.5755C8.45845 26.2444 8.51111 26.1413 8.51111 25.8661C8.51111 25.4273 8.1838 25.0873 7.76132 25.0873C7.48917 25.0873 7.38923 25.1657 6.35205 26.1944ZM3.20645 35.7471C2.74544 36.0026 2.68426 36.5467 3.07283 36.9353C3.46281 37.3254 4.01953 37.2613 4.25855 36.799C4.62313 36.0937 3.89483 35.3655 3.20645 35.7471Z" fill="white"/>
</svg>
